HIERARCHY
ROOT Hips
{
	OFFSET 0.000000 0.000000 0.000000
	CHANNELS 6 Xposition Yposition Zposition Zrotation Yrotation Xrotation 
	JOINT LHipJoint
	{
		OFFSET 0.000000 0.000000 0.000000
		CHANNELS 3 Zrotation Yrotation Xrotation
		JOINT LeftUpLeg
		{
			OFFSET 1.363060 -1.794630 0.839290
			CHANNELS 3 Zrotation Yrotation Xrotation
			JOINT LeftLeg
			{
				OFFSET 2.448110 -6.726130 0.000000
				CHANNELS 3 Zrotation Yrotation Xrotation
				JOINT LeftFoot
				{
					OFFSET 2.562200 -7.039590 0.000000
					CHANNELS 3 Zrotation Yrotation Xrotation
					JOINT LeftToeBase
					{
						OFFSET 0.157640 -0.433110 2.322550
						CHANNELS 3 Zrotation Yrotation Xrotation
						End Site
						{
							OFFSET 0.000000 0.000000 0.000000
						}
					}
				}
			}
		}
	}
	JOINT RHipJoint
	{
		OFFSET 0.000000 0.000000 0.000000
		CHANNELS 3 Zrotation Yrotation Xrotation
		JOINT RightUpLeg
		{
			OFFSET -1.305520 -1.794630 0.839290
			CHANNELS 3 Zrotation Yrotation Xrotation
			JOINT RightLeg
			{
				OFFSET -2.542530 -6.985550 0.000000
				CHANNELS 3 Zrotation Yrotation Xrotation
				JOINT RightFoot
				{
					OFFSET -2.568260 -7.056230 0.000000
					CHANNELS 3 Zrotation Yrotation Xrotation
					JOINT RightToeBase
					{
						OFFSET -0.164730 -0.452590 2.363150
						CHANNELS 3 Zrotation Yrotation Xrotation
						End Site
						{
							OFFSET 0.000000 0.000000 0.000000
						}
					}
				}
			}
		}
	}
	JOINT LowerBack
	{
		OFFSET 0.000000 0.000000 0.000000
		CHANNELS 3 Zrotation Yrotation Xrotation
		JOINT Spine
		{
			OFFSET 0.028270 2.035590 -0.193380
			CHANNELS 3 Zrotation Yrotation Xrotation
			JOINT Spine1
			{
				OFFSET 0.056720 2.048850 -0.042750
				CHANNELS 3 Zrotation Yrotation Xrotation
				JOINT Neck
				{
					OFFSET 0.000000 0.000000 0.000000
					CHANNELS 3 Zrotation Yrotation Xrotation
					JOINT Neck1
					{
						OFFSET -0.054170 1.746240 0.172020
						CHANNELS 3 Zrotation Yrotation Xrotation
						JOINT Head
						{
							OFFSET 0.104070 1.761360 -0.123970
							CHANNELS 3 Zrotation Yrotation Xrotation
							End Site
							{
								OFFSET 0.000000 0.000000 0.000000
							}
						}
					}
				}
				JOINT LeftShoulder
				{
					OFFSET 0.000000 0.000000 0.000000
					CHANNELS 3 Zrotation Yrotation Xrotation
					JOINT LeftArm
					{
						OFFSET 3.362410 1.200890 -0.311210
						CHANNELS 3 Zrotation Yrotation Xrotation
						JOINT LeftForeArm
						{
							OFFSET 4.983000 -0.000000 -0.000000
							CHANNELS 3 Zrotation Yrotation Xrotation
							JOINT LeftHand
							{
								OFFSET 3.483560 -0.000000 -0.000000
								CHANNELS 3 Zrotation Yrotation Xrotation
								JOINT LeftFingerBase
								{
									OFFSET 0.000000 0.000000 0.000000
									CHANNELS 3 Zrotation Yrotation Xrotation
									JOINT LeftHandIndex1
									{
										OFFSET 0.715260 -0.000000 -0.000000
										CHANNELS 3 Zrotation Yrotation Xrotation
										End Site
										{
											OFFSET 0.000000 0.000000 0.000000
										}
									}
								}
								JOINT LThumb
								{
									OFFSET 0.000000 0.000000 0.000000
									CHANNELS 3 Zrotation Yrotation Xrotation
									End Site
									{
										OFFSET 0.000000 0.000000 0.000000
									}
								}
							}
						}
					}
				}
				JOINT RightShoulder
				{
					OFFSET 0.000000 0.000000 0.000000
					CHANNELS 3 Zrotation Yrotation Xrotation
					JOINT RightArm
					{
						OFFSET -3.136600 1.374050 -0.404650
						CHANNELS 3 Zrotation Yrotation Xrotation
						JOINT RightForeArm
						{
							OFFSET -5.241900 -0.000000 -0.000000
							CHANNELS 3 Zrotation Yrotation Xrotation
							JOINT RightHand
							{
								OFFSET -3.444170 -0.000000 -0.000000
								CHANNELS 3 Zrotation Yrotation Xrotation
								JOINT RightFingerBase
								{
									OFFSET 0.000000 0.000000 0.000000
									CHANNELS 3 Zrotation Yrotation Xrotation
									JOINT RightHandIndex1
									{
										OFFSET -0.622530 -0.000000 -0.000000
										CHANNELS 3 Zrotation Yrotation Xrotation
										End Site
										{
											OFFSET 0.000000 0.000000 0.000000
										}
									}
								}
								JOINT RThumb
								{
									OFFSET 0.000000 0.000000 0.000000
									CHANNELS 3 Zrotation Yrotation Xrotation
									End Site
									{
										OFFSET 0.000000 0.000000 0.000000
									}
								}
							}
						}
					}
				}
			}
		}
	}
}
MOTION
Frames: 6
Frame Time: 0.008333
1.490486 16.703579 2.544240 -45.268182 -59.356567 39.408649 -13.834552 -3.007738 -2.139294 9.638189 -16.138249 -6.845879 0.368620 3.109500 42.868118 2.988148 16.042416 -21.185617 -3.712400 0.000000 -34.591401 2.690572 6.917693 -1.469706 5.445140 -5.113450 -138.183001 -5.831726 -10.244659 107.682459 -1.474753 -2.918832 -25.655537 1.279800 -0.000000 -64.097200 8.253115 -5.665803 8.497805 1.404461 -5.855500 -1.418842 -4.446510 -5.787499 -0.963920 5.772102 -20.419029 -5.180840 0.418076 0.000291 0.498332 0.000000 0.000000 0.000000 15.034443 2.300498 -2.322177 -44.001143 26.343845 37.622761 -0.221718 -89.289456 -0.000802 -9.484582 -7.316644 0.644341 0.283582 0.240866 0.000000 0.000000 0.000000 0.000000 0.000000 0.000000 0.000000 -3.966588 -17.173852 0.109793 54.599559 -22.861499 31.964564 0.822751 67.274713 0.003506 0.008872 8.522768 -0.000471 0.019156 -0.094032 0.000000 0.000000 0.000000 0.000000 0.000000 0.000000 0.000000 
1.487895 16.661168 2.545543 -45.131139 -59.636478 39.170577 -13.845640 -3.025969 -2.295079 9.313602 -15.888497 -6.961622 0.327717 3.184194 43.678560 2.989973 16.046005 -21.638823 -3.848700 0.000001 -34.826101 2.690356 6.955377 -1.388987 4.969157 -5.133438 -138.048540 -5.565511 -10.152753 106.499364 -1.557075 -3.252995 -25.813902 1.381700 0.000000 -63.556500 8.310505 -5.681567 8.586406 1.426032 -5.867295 -1.415776 -4.397647 -5.797186 -1.004298 5.619673 -20.271317 -5.089211 0.416894 -0.001352 0.521867 0.000000 0.000000 0.000000 14.983142 2.418524 -2.384400 -44.024052 26.835905 38.011856 -0.215347 -89.656349 -0.001381 -9.514152 -7.325533 0.647199 0.286753 0.239828 0.000000 0.000000 0.000000 0.000000 0.000000 0.000000 0.000000 -4.146529 -17.043061 0.086505 54.863667 -23.535574 32.067096 0.841822 67.036670 0.003483 0.083168 8.590356 0.005218 0.018251 -0.090243 0.000000 0.000000 0.000000 0.000000 0.000000 0.000000 0.000000 
1.486909 16.618771 2.547688 -44.965223 -59.924490 38.941018 -13.856011 -3.038245 -2.436712 8.985231 -15.648673 -7.140710 0.289089 3.256270 44.490776 2.991522 16.053519 -22.075442 -3.981400 -0.000001 -35.112200 2.700866 6.981184 -1.296992 4.496291 -5.198132 -137.702407 -5.263787 -10.030858 105.012797 -1.664788 -3.808092 -25.658065 1.507100 -0.000000 -62.664501 8.361526 -5.698385 8.644698 1.446972 -5.881461 -1.418675 -4.348945 -5.809558 -1.042641 5.462013 -20.111121 -4.994100 0.415412 -0.003101 0.546822 0.000000 0.000000 0.000000 14.940346 2.525413 -2.452183 -44.059635 27.364278 38.385018 179.790690 -89.964417 179.998040 -9.533665 -7.333886 0.649257 0.289781 0.238921 0.000000 0.000000 0.000000 0.000000 0.000000 0.000000 0.000000 -4.334359 -16.900779 0.066743 55.184769 -24.218975 32.110631 0.866342 66.735759 0.003493 0.188022 8.673646 0.013405 0.017307 -0.086350 0.000000 0.000000 0.000000 0.000000 0.000000 0.000000 0.000000 
1.488436 16.576414 2.550786 -44.791363 -60.223472 38.733958 -13.868070 -3.047613 -2.570091 8.655061 -15.422639 -7.365888 0.252639 3.327823 45.299917 2.995179 16.076862 -22.500836 -4.114600 -0.000000 -35.365300 2.720753 6.993713 -1.195859 4.023811 -5.310049 -137.107612 -4.913592 -9.872778 103.137068 -1.799559 -4.584469 -25.165186 1.641900 0.000000 -61.435600 8.412881 -5.714724 8.684930 1.468052 -5.896267 -1.424859 -4.301385 -5.822664 -1.078559 5.303749 -19.955405 -4.903918 0.413128 -0.004833 0.570724 0.000000 0.000000 0.000000 14.910240 2.622983 -2.524245 -44.124632 27.929909 38.723527 179.796354 -89.575476 179.997466 -9.537167 -7.344282 0.650518 0.292520 0.238262 0.000000 0.000000 0.000000 0.000000 0.000000 0.000000 0.000000 -4.518903 -16.761349 0.052695 55.545301 -24.885702 32.093704 0.895130 66.393671 0.003540 0.304620 8.748450 0.022595 0.016609 -0.082344 0.000000 0.000000 0.000000 0.000000 0.000000 0.000000 0.000000 
1.493262 16.534282 2.555196 -44.636741 -60.538955 38.579379 -13.885278 -3.055614 -2.696260 8.331416 -15.213357 -7.639608 0.219957 3.400338 46.108029 3.002862 16.130807 -22.905294 -4.248900 -0.000000 -35.646600 2.748880 6.989603 -1.082506 3.550736 -5.461014 -136.240289 -4.498341 -9.674752 100.776447 -1.961626 -5.546965 -24.366860 1.763500 -0.000000 -59.825900 8.477494 -5.728330 8.705487 1.491980 -5.909962 -1.435306 -4.254374 -5.834837 -1.112850 5.137670 -19.789398 -4.820550 0.410975 -0.006451 0.593063 0.000000 0.000000 0.000000 14.883793 2.713827 -2.597674 -44.229706 28.536115 39.014306 179.801675 -89.179613 179.996933 -9.525478 -7.354603 0.650682 0.294848 0.237868 0.000000 0.000000 0.000000 0.000000 0.000000 0.000000 0.000000 -4.717067 -16.605449 0.047278 55.975066 -25.540953 31.954960 0.930128 65.998840 0.003644 0.437789 8.838387 0.033186 0.016188 -0.078504 0.000000 0.000000 0.000000 0.000000 0.000000 0.000000 0.000000 
1.502171 16.492640 2.560746 -44.520345 -60.887483 38.484442 -13.906105 -3.065904 -2.827271 8.001670 -15.007365 -7.929157 0.189651 3.474659 46.896245 3.016002 16.220665 -23.291828 -4.386900 -0.000001 -35.861700 2.786123 6.967343 -0.957183 3.069880 -5.634118 -135.077234 -4.005250 -9.431551 97.845099 -2.146694 -6.627682 -23.325014 1.844400 -0.000000 -57.955300 8.547933 -5.736317 8.724000 1.516225 -5.918792 -1.445674 -4.209573 -5.841916 -1.144381 4.974713 -19.632964 -4.751937 0.407496 -0.007904 0.611424 0.000000 0.000000 0.000000 14.869435 2.809563 -2.670462 -44.391931 29.172892 39.242224 179.806792 -88.784949 179.996434 -9.496174 -7.369469 0.650052 0.296687 0.237820 0.000000 0.000000 0.000000 0.000000 0.000000 0.000000 0.000000 -4.904708 -16.451492 0.049637 56.442199 -26.152659 31.712745 0.968519 65.586223 0.003807 0.558447 8.911956 0.042881 0.016361 -0.074832 0.000000 0.000000 0.000000 0.000000 0.000000 0.000000 0.000000 
